{
  "asset": {
    "version": "2.0",
    "generator": "THREE.GLTFExporter"
  },
  "scenes": [
    {
      "nodes": [
        7
      ]
    }
  ],
  "scene": 0,
  "nodes": [
    {
      "matrix": [
        1.0478181737814826e-11,
        -1.7593471787654544e-11,
        0.0016766752726154882,
        0,
        -0.0003036263591706916,
        0.0016489545272916858,
        1.7593471787654544e-11,
        0,
        -0.0022825074129131304,
        -0.0004202841302300285,
        1.0057224182397218e-11,
        0,
        0.004390060435980558,
        -0.029257208108901978,
        0.03184317424893379,
        1
      ],
      "name": "node_id30",
      "mesh": 0
    },
    {
      "matrix": [
        0.0006225102989066203,
        1.0259880914712334e-10,
        -0.0007360757650511076,
        0,
        -0.0005073618970899223,
        8.491823513474219e-11,
        -0.0004290836227722166,
        0,
        7.071921956926325e-11,
        0.0006644760817169428,
        8.491819794085132e-11,
        0,
        0.20125025510787964,
        -0.1088438481092453,
        0.17768476903438568,
        1
      ],
      "name": "node_id41",
      "mesh": 1
    },
    {
      "matrix": [
        1,
        0,
        0,
        0,
        0,
        1,
        0,
        0,
        0,
        0,
        1,
        0,
        -156.2996826171875,
        13.776199340820312,
        7.5,
        1
      ],
      "name": "mesh_id69",
      "mesh": 2
    },
    {
      "matrix": [
        1,
        0,
        0,
        0,
        0,
        1,
        0,
        0,
        0,
        0,
        1,
        0,
        -131.2996826171875,
        -4.2238006591796875,
        7.5,
        1
      ],
      "name": "mesh_id70",
      "mesh": 3
    },
    {
      "matrix": [
        1,
        0,
        0,
        0,
        0,
        1,
        0,
        0,
        0,
        0,
        1,
        0,
        -119.2996826171875,
        -22.223800659179688,
        7.5,
        1
      ],
      "name": "mesh_id71",
      "mesh": 4
    },
    {
      "matrix": [
        0.0005245109787210674,
        0,
        -1.2505317717734893e-10,
        0,
        0,
        0.0005245109787210822,
        0,
        0,
        1.2505317717734893e-10,
        0,
        0.0005245109787210674,
        0,
        -0.0015683899400755763,
        -0.025799080729484558,
        0.05112256109714508,
        1
      ],
      "name": "node_id61",
      "children": [
        2,
        3,
        4
      ]
    },
    {
      "matrix": [
        0.00010323915194021538,
        0,
        0,
        0,
        0,
        0.00010323915194021538,
        0,
        0,
        0,
        0,
        0.00010323915194021538,
        0,
        -0.00261469604447484,
        -0.00652780756354332,
        0.04431368038058281,
        1
      ],
      "name": "node_id52",
      "mesh": 5
    },
    {
      "name": "root",
      "children": [
        0,
        1,
        5,
        6
      ]
    }
  ],
  "bufferViews": [
    {
      "buffer": 0,
      "byteOffset": 0,
      "byteLength": 36744,
      "target": 34962,
      "byteStride": 12
    },
    {
      "buffer": 0,
      "byteOffset": 36744,
      "byteLength": 36744,
      "target": 34962,
      "byteStride": 12
    },
    {
      "buffer": 0,
      "byteOffset": 73488,
      "byteLength": 24496,
      "target": 34962,
      "byteStride": 8
    },
    {
      "buffer": 0,
      "byteOffset": 97984,
      "byteLength": 22932,
      "target": 34963
    },
    {
      "buffer": 0,
      "byteOffset": 120916,
      "byteLength": 63984,
      "target": 34962,
      "byteStride": 12
    },
    {
      "buffer": 0,
      "byteOffset": 184900,
      "byteLength": 63984,
      "target": 34962,
      "byteStride": 12
    },
    {
      "buffer": 0,
      "byteOffset": 248884,
      "byteLength": 12636,
      "target": 34963
    },
    {
      "buffer": 0,
      "byteOffset": 261520,
      "byteLength": 55608,
      "target": 34962,
      "byteStride": 12
    },
    {
      "buffer": 0,
      "byteOffset": 317128,
      "byteLength": 55608,
      "target": 34962,
      "byteStride": 12
    },
    {
      "buffer": 0,
      "byteOffset": 372736,
      "byteLength": 25392,
      "target": 34963
    },
    {
      "buffer": 0,
      "byteOffset": 398128,
      "byteLength": 85200,
      "target": 34962,
      "byteStride": 12
    },
    {
      "buffer": 0,
      "byteOffset": 483328,
      "byteLength": 85200,
      "target": 34962,
      "byteStride": 12
    },
    {
      "buffer": 0,
      "byteOffset": 568528,
      "byteLength": 39504,
      "target": 34963
    },
    {
      "buffer": 0,
      "byteOffset": 608032,
      "byteLength": 78264,
      "target": 34962,
      "byteStride": 12
    },
    {
      "buffer": 0,
      "byteOffset": 686296,
      "byteLength": 78264,
      "target": 34962,
      "byteStride": 12
    },
    {
      "buffer": 0,
      "byteOffset": 764560,
      "byteLength": 36384,
      "target": 34963
    },
    {
      "buffer": 0,
      "byteOffset": 800944,
      "byteLength": 20592,
      "target": 34962,
      "byteStride": 12
    },
    {
      "buffer": 0,
      "byteOffset": 821536,
      "byteLength": 20592,
      "target": 34962,
      "byteStride": 12
    },
    {
      "buffer": 0,
      "byteOffset": 842128,
      "byteLength": 13728,
      "target": 34962,
      "byteStride": 8
    },
    {
      "buffer": 0,
      "byteOffset": 855856,
      "byteLength": 17928,
      "target": 34963
    }
  ],
  "buffers": [
    {
      "byteLength": 873784,
      "uri": "data:application/octet-stream;base64,"
    }
  ],
  "accessors": [
    {
      "bufferView": 0,
      "componentType": 5126,
      "count": 3062,
      "max": [
        4.197650909423828,
        19.421710968017578,
        17.211856842041016
      ],
      "min": [
        -4.197650909423828,
        0,
        -17.120834350585938
      ],
      "type": "VEC3"
    },
    {
      "bufferView": 1,
      "componentType": 5126,
      "count": 3062,
      "max": [
        1,
        0.9999927878379822,
        1
      ],
      "min": [
        -1,
        -0.9999927878379822,
        -0.9997113943099976
      ],
      "type": "VEC3"
    },
    {
      "bufferView": 2,
      "componentType": 5126,
      "count": 3062,
      "max": [
        0.9928119778633118,
        0.9934960007667542
      ],
      "min": [
        0.003022999968379736,
        0.00532299280166626
      ],
      "type": "VEC2"
    },
    {
      "bufferView": 3,
      "componentType": 5123,
      "count": 11466,
      "max": [
        3061
      ],
      "min": [
        0
      ],
      "type": "SCALAR"
    },
    {
      "bufferView": 4,
      "componentType": 5126,
      "count": 5332,
      "max": [
        4.262700080871582,
        413.9599914550781,
        204.33399963378906
      ],
      "min": [
        -56.062198638916016,
        391.76800537109375,
        124.95899963378906
      ],
      "type": "VEC3"
    },
    {
      "bufferView": 5,
      "componentType": 5126,
      "count": 5332,
      "max": [
        1,
        1,
        1
      ],
      "min": [
        -1,
        -1,
        -1
      ],
      "type": "VEC3"
    },
    {
      "bufferView": 6,
      "componentType": 5123,
      "count": 6318,
      "max": [
        5331
      ],
      "min": [
        0
      ],
      "type": "SCALAR"
    },
    {
      "bufferView": 7,
      "componentType": 5126,
      "count": 4634,
      "max": [
        311.45379638671875,
        11.619317054748535,
        0
      ],
      "min": [
        1.145566463470459,
        -1.145566463470459,
        -15
      ],
      "type": "VEC3"
    },
    {
      "bufferView": 8,
      "componentType": 5126,
      "count": 4634,
      "max": [
        1,
        1,
        1
      ],
      "min": [
        -1,
        -1,
        -1
      ],
      "type": "VEC3"
    },
    {
      "bufferView": 9,
      "componentType": 5123,
      "count": 12696,
      "max": [
        4633
      ],
      "min": [
        0
      ],
      "type": "SCALAR"
    },
    {
      "bufferView": 10,
      "componentType": 5126,
      "count": 7100,
      "max": [
        252.2350311279297,
        11.486836433410645,
        0
      ],
      "min": [
        1.2546679973602295,
        -3.171738386154175,
        -15
      ],
      "type": "VEC3"
    },
    {
      "bufferView": 11,
      "componentType": 5126,
      "count": 7100,
      "max": [
        1,
        1,
        1
      ],
      "min": [
        -1,
        -1,
        -1
      ],
      "type": "VEC3"
    },
    {
      "bufferView": 12,
      "componentType": 5123,
      "count": 19752,
      "max": [
        7099
      ],
      "min": [
        0
      ],
      "type": "SCALAR"
    },
    {
      "bufferView": 13,
      "componentType": 5126,
      "count": 6522,
      "max": [
        222.25547790527344,
        11.619317054748535,
        0
      ],
      "min": [
        0.5455078482627869,
        -3.171738386154175,
        -15
      ],
      "type": "VEC3"
    },
    {
      "bufferView": 14,
      "componentType": 5126,
      "count": 6522,
      "max": [
        1,
        1,
        1
      ],
      "min": [
        -1,
        -1,
        -1
      ],
      "type": "VEC3"
    },
    {
      "bufferView": 15,
      "componentType": 5123,
      "count": 18192,
      "max": [
        6521
      ],
      "min": [
        0
      ],
      "type": "SCALAR"
    },
    {
      "bufferView": 16,
      "componentType": 5126,
      "count": 1716,
      "max": [
        194.28573608398438,
        397.6930847167969,
        25.624879837036133
      ],
      "min": [
        -194.62139892578125,
        0,
        -25.624879837036133
      ],
      "type": "VEC3"
    },
    {
      "bufferView": 17,
      "componentType": 5126,
      "count": 1716,
      "max": [
        0.9994490146636963,
        0.9999990463256836,
        1
      ],
      "min": [
        -0.9994164109230042,
        -1,
        -1
      ],
      "type": "VEC3"
    },
    {
      "bufferView": 18,
      "componentType": 5126,
      "count": 1716,
      "max": [
        0.9887473583221436,
        0.9876272678375244
      ],
      "min": [
        0.0095444917678833,
        0.016447782516479492
      ],
      "type": "VEC2"
    },
    {
      "bufferView": 19,
      "componentType": 5123,
      "count": 8964,
      "max": [
        1715
      ],
      "min": [
        0
      ],
      "type": "SCALAR"
    }
  ],
  "materials": [],
  "meshes": [
    {
      "primitives": [
        {
          "mode": 4,
          "attributes": {
            "POSITION": 0,
            "NORMAL": 1,
            "TEXCOORD_0": 2
          },
          "indices": 3
        }
      ]
    },
    {
      "primitives": [
        {
          "mode": 4,
          "attributes": {
            "POSITION": 4,
            "NORMAL": 5
          },
          "indices": 6
        }
      ]
    },
    {
      "primitives": [
        {
          "mode": 4,
          "attributes": {
            "POSITION": 7,
            "NORMAL": 8
          },
          "indices": 9
        }
      ]
    },
    {
      "primitives": [
        {
          "mode": 4,
          "attributes": {
            "POSITION": 10,
            "NORMAL": 11
          },
          "indices": 12
        }
      ]
    },
    {
      "primitives": [
        {
          "mode": 4,
          "attributes": {
            "POSITION": 13,
            "NORMAL": 14
          },
          "indices": 15
        }
      ]
    },
    {
      "primitives": [
        {
          "mode": 4,
          "attributes": {
            "POSITION": 16,
            "NORMAL": 17,
            "TEXCOORD_0": 18
          },
          "indices": 19
        }
      ]
    }
  ]
}