{"asset":{"version":"2.0","generator":"Microsoft GLTF Exporter 2.4.2.8"},"accessors":[{"bufferView":0,"componentType":5123,"count":36,"type":"SCALAR","byteOffset":0},{"bufferView":1,"componentType":5123,"count":36,"type":"SCALAR","byteOffset":0},{"bufferView":2,"componentType":5123,"count":36,"type":"SCALAR","byteOffset":0},{"bufferView":3,"componentType":5123,"count":960,"type":"SCALAR","byteOffset":0},{"bufferView":4,"componentType":5123,"count":960,"type":"SCALAR","byteOffset":0},{"bufferView":5,"componentType":5123,"count":960,"type":"SCALAR","byteOffset":0},{"bufferView":6,"componentType":5123,"count":960,"type":"SCALAR","byteOffset":0},{"bufferView":7,"componentType":5123,"count":960,"type":"SCALAR","byteOffset":0},{"bufferView":8,"componentType":5126,"count":24,"type":"VEC3","max":[5.017885684967041,124.87903594970703,5.017885684967041],"min":[-5.017885684967041,-124.87903594970703,-5.017885684967041],"byteOffset":0},{"bufferView":9,"componentType":5126,"count":26,"type":"VEC3","max":[281.4895935058594,111.86274719238281,111.86274719238281],"min":[-281.4895935058594,-111.86274719238281,-111.86274719238281],"byteOffset":0},{"bufferView":10,"componentType":5126,"count":24,"type":"VEC3","max":[5.017885684967041,124.87903594970703,5.017885684967041],"min":[-5.017885684967041,-124.87903594970703,-5.017885684967041],"byteOffset":0},{"bufferView":11,"componentType":5126,"count":338,"type":"VEC3","max":[5.507999420166016,1.8722602128982544,5.507999420166016],"min":[-5.507999420166016,-1.8722602128982544,-5.507998943328857],"byteOffset":0},{"bufferView":12,"componentType":5126,"count":338,"type":"VEC3","max":[5.507999420166016,1.8722602128982544,5.507999420166016],"min":[-5.507999420166016,-1.8722602128982544,-5.507998943328857],"byteOffset":0},{"bufferView":13,"componentType":5126,"count":338,"type":"VEC3","max":[5.507999420166016,1.8722602128982544,5.507999420166016],"min":[-5.507999420166016,-1.8722602128982544,-5.507998943328857],"byteOffset":0},{"bufferView":14,"componentType":5126,"count":338,"type":"VEC3","max":[5.507999420166016,1.8722602128982544,5.507999420166016],"min":[-5.507999420166016,-1.8722602128982544,-5.507998943328857],"byteOffset":0},{"bufferView":15,"componentType":5126,"count":338,"type":"VEC3","max":[5.507999420166016,1.8722602128982544,5.507999420166016],"min":[-5.507999420166016,-1.8722602128982544,-5.507998943328857],"byteOffset":0},{"bufferView":16,"componentType":5126,"count":24,"type":"VEC3","byteOffset":0},{"bufferView":17,"componentType":5126,"count":26,"type":"VEC3","byteOffset":0},{"bufferView":18,"componentType":5126,"count":24,"type":"VEC3","byteOffset":0},{"bufferView":19,"componentType":5126,"count":338,"type":"VEC3","byteOffset":0},{"bufferView":20,"componentType":5126,"count":338,"type":"VEC3","byteOffset":0},{"bufferView":21,"componentType":5126,"count":338,"type":"VEC3","byteOffset":0},{"bufferView":22,"componentType":5126,"count":338,"type":"VEC3","byteOffset":0},{"bufferView":23,"componentType":5126,"count":338,"type":"VEC3","byteOffset":0},{"bufferView":24,"componentType":5126,"count":24,"type":"VEC2","byteOffset":0},{"bufferView":25,"componentType":5126,"count":26,"type":"VEC2","byteOffset":0},{"bufferView":26,"componentType":5126,"count":24,"type":"VEC2","byteOffset":0},{"bufferView":27,"componentType":5126,"count":338,"type":"VEC2","byteOffset":0},{"bufferView":28,"componentType":5126,"count":338,"type":"VEC2","byteOffset":0},{"bufferView":29,"componentType":5126,"count":338,"type":"VEC2","byteOffset":0},{"bufferView":30,"componentType":5126,"count":338,"type":"VEC2","byteOffset":0},{"bufferView":31,"componentType":5126,"count":338,"type":"VEC2","byteOffset":0},{"bufferView":32,"componentType":5126,"count":24,"type":"VEC4","byteOffset":0},{"bufferView":33,"componentType":5126,"count":26,"type":"VEC4","byteOffset":0},{"bufferView":34,"componentType":5126,"count":24,"type":"VEC4","byteOffset":0},{"bufferView":35,"componentType":5126,"count":338,"type":"VEC4","byteOffset":0},{"bufferView":36,"componentType":5126,"count":338,"type":"VEC4","byteOffset":0},{"bufferView":37,"componentType":5126,"count":338,"type":"VEC4","byteOffset":0},{"bufferView":38,"componentType":5126,"count":338,"type":"VEC4","byteOffset":0},{"bufferView":39,"componentType":5126,"count":338,"type":"VEC4","byteOffset":0}],"bufferViews":[{"buffer":0,"byteOffset":0,"byteLength":72,"target":34963},{"buffer":0,"byteOffset":72,"byteLength":72,"target":34963},{"buffer":0,"byteOffset":144,"byteLength":72,"target":34963},{"buffer":0,"byteOffset":216,"byteLength":1920,"target":34963},{"buffer":0,"byteOffset":2136,"byteLength":1920,"target":34963},{"buffer":0,"byteOffset":4056,"byteLength":1920,"target":34963},{"buffer":0,"byteOffset":5976,"byteLength":1920,"target":34963},{"buffer":0,"byteOffset":7896,"byteLength":1920,"target":34963},{"buffer":0,"byteOffset":9816,"byteLength":288,"target":34962,"byteStride":12},{"buffer":0,"byteOffset":10104,"byteLength":312,"target":34962,"byteStride":12},{"buffer":0,"byteOffset":10416,"byteLength":288,"target":34962,"byteStride":12},{"buffer":0,"byteOffset":10704,"byteLength":4056,"target":34962,"byteStride":12},{"buffer":0,"byteOffset":14760,"byteLength":4056,"target":34962,"byteStride":12},{"buffer":0,"byteOffset":18816,"byteLength":4056,"target":34962,"byteStride":12},{"buffer":0,"byteOffset":22872,"byteLength":4056,"target":34962,"byteStride":12},{"buffer":0,"byteOffset":26928,"byteLength":4056,"target":34962,"byteStride":12},{"buffer":0,"byteOffset":30984,"byteLength":288,"target":34962,"byteStride":12},{"buffer":0,"byteOffset":31272,"byteLength":312,"target":34962,"byteStride":12},{"buffer":0,"byteOffset":31584,"byteLength":288,"target":34962,"byteStride":12},{"buffer":0,"byteOffset":31872,"byteLength":4056,"target":34962,"byteStride":12},{"buffer":0,"byteOffset":35928,"byteLength":4056,"target":34962,"byteStride":12},{"buffer":0,"byteOffset":39984,"byteLength":4056,"target":34962,"byteStride":12},{"buffer":0,"byteOffset":44040,"byteLength":4056,"target":34962,"byteStride":12},{"buffer":0,"byteOffset":48096,"byteLength":4056,"target":34962,"byteStride":12},{"buffer":0,"byteOffset":52152,"byteLength":192,"target":34962,"byteStride":8},{"buffer":0,"byteOffset":52344,"byteLength":208,"target":34962,"byteStride":8},{"buffer":0,"byteOffset":52552,"byteLength":192,"target":34962,"byteStride":8},{"buffer":0,"byteOffset":52744,"byteLength":2704,"target":34962,"byteStride":8},{"buffer":0,"byteOffset":55448,"byteLength":2704,"target":34962,"byteStride":8},{"buffer":0,"byteOffset":58152,"byteLength":2704,"target":34962,"byteStride":8},{"buffer":0,"byteOffset":60856,"byteLength":2704,"target":34962,"byteStride":8},{"buffer":0,"byteOffset":63560,"byteLength":2704,"target":34962,"byteStride":8},{"buffer":0,"byteOffset":66264,"byteLength":384,"target":34962,"byteStride":16},{"buffer":0,"byteOffset":66648,"byteLength":416,"target":34962,"byteStride":16},{"buffer":0,"byteOffset":67064,"byteLength":384,"target":34962,"byteStride":16},{"buffer":0,"byteOffset":67448,"byteLength":5408,"target":34962,"byteStride":16},{"buffer":0,"byteOffset":72856,"byteLength":5408,"target":34962,"byteStride":16},{"buffer":0,"byteOffset":78264,"byteLength":5408,"target":34962,"byteStride":16},{"buffer":0,"byteOffset":83672,"byteLength":5408,"target":34962,"byteStride":16},{"buffer":0,"byteOffset":89080,"byteLength":5408,"target":34962,"byteStride":16},{"buffer":0,"byteOffset":94488,"byteLength":163},{"buffer":0,"byteOffset":94652,"byteLength":163},{"buffer":0,"byteOffset":94816,"byteLength":163},{"buffer":0,"byteOffset":94980,"byteLength":163},{"buffer":0,"byteOffset":95144,"byteLength":163},{"buffer":0,"byteOffset":95308,"byteLength":163},{"buffer":0,"byteOffset":95472,"byteLength":163},{"buffer":0,"byteOffset":95636,"byteLength":163},{"buffer":0,"byteOffset":95800,"byteLength":163},{"buffer":0,"byteOffset":95964,"byteLength":163},{"buffer":0,"byteOffset":96128,"byteLength":163},{"buffer":0,"byteOffset":96292,"byteLength":163}],"buffers":[{"name":"output","byteLength":96456,"uri":"data:application/octet-stream;base64,"}],"images":[{"bufferView":40,"mimeType":"image/png"},{"bufferView":41,"mimeType":"image/png"},{"bufferView":42,"mimeType":"image/png"},{"bufferView":43,"mimeType":"image/png"},{"bufferView":44,"mimeType":"image/png"},{"bufferView":45,"mimeType":"image/png"},{"bufferView":46,"mimeType":"image/png"},{"bufferView":47,"mimeType":"image/png"},{"bufferView":48,"mimeType":"image/png"},{"bufferView":49,"mimeType":"image/png"},{"bufferView":50,"mimeType":"image/png"},{"bufferView":51,"mimeType":"image/png"}],"materials":[{"pbrMetallicRoughness":{"baseColorTexture":{"index":2,"texCoord":0},"metallicRoughnessTexture":{"index":3,"texCoord":0},"baseColorFactor":[1,1,1,1],"metallicFactor":1,"roughnessFactor":1},"name":"115","doubleSided":true,"extensions":{"KHR_materials_pbrSpecularGlossiness":{"diffuseTexture":{"index":0},"specularGlossinessTexture":{"index":1}}},"extras":{"MSFT_sRGBFactors":false},"emissiveFactor":[0,0,0],"alphaMode":"OPAQUE"},{"pbrMetallicRoughness":{"baseColorTexture":{"index":6,"texCoord":0},"metallicRoughnessTexture":{"index":7,"texCoord":0},"baseColorFactor":[1,1,1,1],"metallicFactor":1,"roughnessFactor":1},"name":"117","doubleSided":true,"extensions":{"KHR_materials_pbrSpecularGlossiness":{"diffuseTexture":{"index":4},"specularGlossinessTexture":{"index":5}}},"extras":{"MSFT_sRGBFactors":false},"emissiveFactor":[0,0,0],"alphaMode":"OPAQUE"},{"pbrMetallicRoughness":{"baseColorTexture":{"index":10,"texCoord":0},"metallicRoughnessTexture":{"index":11,"texCoord":0},"baseColorFactor":[1,1,1,1],"metallicFactor":1,"roughnessFactor":1},"name":"119","doubleSided":true,"extensions":{"KHR_materials_pbrSpecularGlossiness":{"diffuseTexture":{"index":8},"specularGlossinessTexture":{"index":9}}},"extras":{"MSFT_sRGBFactors":false},"emissiveFactor":[0,0,0],"alphaMode":"OPAQUE"}],"meshes":[{"name":"mesh_id57","primitives":[{"attributes":{"POSITION":8,"NORMAL":16,"TEXCOORD_0":24,"COLOR_0":32},"indices":0,"material":0,"mode":4}]},{"name":"mesh_id49","primitives":[{"attributes":{"POSITION":9,"NORMAL":17,"TEXCOORD_0":25,"COLOR_0":33},"indices":1,"material":1,"mode":4}]},{"name":"mesh_id51","primitives":[{"attributes":{"POSITION":10,"NORMAL":18,"TEXCOORD_0":26,"COLOR_0":34},"indices":2,"material":0,"mode":4}]},{"name":"mesh_id80","primitives":[{"attributes":{"POSITION":11,"NORMAL":19,"TEXCOORD_0":27,"COLOR_0":35},"indices":3,"material":2,"mode":4}]},{"name":"mesh_id79","primitives":[{"attributes":{"POSITION":12,"NORMAL":20,"TEXCOORD_0":28,"COLOR_0":36},"indices":4,"material":2,"mode":4}]},{"name":"mesh_id76","primitives":[{"attributes":{"POSITION":13,"NORMAL":21,"TEXCOORD_0":29,"COLOR_0":37},"indices":5,"material":2,"mode":4}]},{"name":"mesh_id81","primitives":[{"attributes":{"POSITION":14,"NORMAL":22,"TEXCOORD_0":30,"COLOR_0":38},"indices":6,"material":2,"mode":4}]},{"name":"mesh_id70","primitives":[{"attributes":{"POSITION":15,"NORMAL":23,"TEXCOORD_0":31,"COLOR_0":39},"indices":7,"material":2,"mode":4}]}],"nodes":[{"translation":[0.005485901143401861,-0.0003894043038599193,0.030408205464482307],"rotation":[6.554983978632566e-25,-5.04529156050454e-25,0.8960505723953247,-0.44395190477371216],"scale":[0.001396339270286262,0.0013963383389636874,0.00026983334100805223],"mesh":0},{"translation":[0.005595802795141935,-0.0002908630413003266,0.025770509615540504],"scale":[0.0005101830465719104,0.0010000000474974513,0.000029088383598718792],"mesh":1,"rotation":[0,0,0,1]},{"translation":[0.005485901143401861,-0.0003894043038599193,0.030408205464482307],"rotation":[-8.271807111606408e-25,1.3720735935414433e-32,-0.43929117918014526,0.8983447551727295],"scale":[0.0013963396195322275,0.0013963384553790092,0.00026983334100805223],"mesh":2},{"translation":[0.13580329716205597,0.10196280479431152,0.03363445773720741],"rotation":[-0.7071066498756409,-5.551116446614763e-17,5.5511147922535377e-17,0.7071069478988647],"scale":[0.0010000000474974513,0.0009999998146668077,0.0009999998146668077],"mesh":3},{"translation":[0.13778825104236603,-0.1000017449259758,0.03363445773720741],"rotation":[-0.7071066498756409,-5.551116446614763e-17,5.5511147922535377e-17,0.7071069478988647],"scale":[0.0010000000474974513,0.0009999998146668077,0.0009999998146668077],"mesh":4},{"translation":[-0.12777750194072723,-0.10363763570785522,0.03363445773720741],"rotation":[-0.7071066498756409,-5.551116446614763e-17,5.5511147922535377e-17,0.7071069478988647],"scale":[0.0010000000474974513,0.0009999998146668077,0.0009999998146668077],"mesh":5},{"translation":[-0.12714111804962158,0.10093622654676437,0.03363445773720741],"rotation":[-0.7071066498756409,-5.551116446614763e-17,5.5511147922535377e-17,0.7071069478988647],"scale":[0.0010000000474974513,0.0009999998146668077,0.0009999998146668077],"mesh":6},{"translation":[0.005532226990908384,-0.00010977186320815235,0.03363445773720741],"rotation":[-0.7071066498756409,-1.1102231569740545e-16,-9.35847858855123e-24,0.7071069478988647],"scale":[0.0010000000474974513,0.0009999998146668077,0.0009999998146668077],"mesh":7},{"children":[0,1,2,3,4,5,6,7],"name":"root"}],"samplers":[{"minFilter":9985,"wrapS":10497,"wrapT":10497}],"scenes":[{"nodes":[8]}],"scene":0,"textures":[{"name":"texture1567","sampler":0,"source":0},{"name":"texture1571","sampler":0,"source":1},{"name":"115_bc","sampler":0,"source":2},{"name":"115_mr","sampler":0,"source":3},{"name":"texture1577","sampler":0,"source":4},{"name":"texture1580","sampler":0,"source":5},{"name":"117_bc","sampler":0,"source":6},{"name":"117_mr","sampler":0,"source":7},{"name":"texture1586","sampler":0,"source":8},{"name":"texture1589","sampler":0,"source":9},{"name":"119_bc","sampler":0,"source":10},{"name":"119_mr","sampler":0,"source":11}],"extensionsUsed":["KHR_materials_pbrSpecularGlossiness"]}
