{
  "asset": {
    "version": "2.0",
    "generator": "THREE.GLTFExporter"
  },
  "scenes": [
    {
      "nodes": [
        1
      ]
    }
  ],
  "scene": 0,
  "nodes": [
    {
      "matrix": [
        0.0006225102989066203,
        1.0259880914712334e-10,
        -0.0007360757650511076,
        0,
        -0.0005073618970899223,
        8.491823513474219e-11,
        -0.0004290836227722166,
        0,
        7.071921956926325e-11,
        0.0006644760817169428,
        8.491819794085132e-11,
        0,
        0.22635121643543243,
        -0.11095838248729706,
        -0.19704294204711914,
        1
      ],
      "name": "node_id41",
      "mesh": 0
    },
    {
      "name": "root",
      "children": [
        0
      ]
    }
  ],
  "bufferViews": [
    {
      "buffer": 0,
      "byteOffset": 0,
      "byteLength": 63984,
      "target": 34962,
      "byteStride": 12
    },
    {
      "buffer": 0,
      "byteOffset": 63984,
      "byteLength": 63984,
      "target": 34962,
      "byteStride": 12
    },
    {
      "buffer": 0,
      "byteOffset": 127968,
      "byteLength": 12636,
      "target": 34963
    }
  ],
  "buffers": [
    {
      "byteLength": 140604,
      "uri": "data:application/octet-stream;base64,"
    }
  ],
  "accessors": [
    {
      "bufferView": 0,
      "componentType": 5126,
      "count": 5332,
      "max": [
        4.262700080871582,
        413.9599914550781,
        204.33399963378906
      ],
      "min": [
        -56.062198638916016,
        391.76800537109375,
        124.95899963378906
      ],
      "type": "VEC3"
    },
    {
      "bufferView": 1,
      "componentType": 5126,
      "count": 5332,
      "max": [
        1,
        1,
        1
      ],
      "min": [
        -1,
        -1,
        -1
      ],
      "type": "VEC3"
    },
    {
      "bufferView": 2,
      "componentType": 5123,
      "count": 6318,
      "max": [
        5331
      ],
      "min": [
        0
      ],
      "type": "SCALAR"
    }
  ],
  "materials": [],
  "meshes": [
    {
      "primitives": [
        {
          "mode": 4,
          "attributes": {
            "POSITION": 0,
            "NORMAL": 1
          },
          "indices": 2
        }
      ]
    }
  ]
}