{
  "accessors": [
    {
      "bufferView": 2,
      "componentType": 5126,
      "count": 2416,
      "max": [
        1.047400951385498,
        1.0473971366882324,
        0.074823997914791107
      ],
      "min": [
        -1.0474050045013428,
        -1.0474100112915039,
        -0.074823997914791107
      ],
      "type": "VEC3"
    },
    {
      "bufferView": 2,
      "byteOffset": 28992,
      "componentType": 5126,
      "count": 2416,
      "max": [
        1,
        1,
        1
      ],
      "min": [
        -1,
        -1,
        -1
      ],
      "type": "VEC3"
    },
    {
      "bufferView": 3,
      "componentType": 5126,
      "count": 2416,
      "max": [
        1,
        1,
        1,
        1
      ],
      "min": [
        -1,
        -1,
        -1,
        -1
      ],
      "type": "VEC4"
    },
    {
      "bufferView": 1,
      "componentType": 5126,
      "count": 2416,
      "max": [
        0.99000000953674316,
        0.99000000953674316
      ],
      "min": [
        0.0099999997764825821,
        0.029797911643981934
      ],
      "type": "VEC2"
    },
    {
      "bufferView": 1,
      "byteOffset": 19328,
      "componentType": 5126,
      "count": 2416,
      "max": [
        0.99000000953674316,
        0.99000000953674316
      ],
      "min": [
        0.0099999997764825821,
        0.029797911643981934
      ],
      "type": "VEC2"
    },
    {
      "bufferView": 1,
      "byteOffset": 38656,
      "componentType": 5126,
      "count": 2416,
      "max": [
        0.99000000953674316,
        0.99000000953674316
      ],
      "min": [
        0.0099999997764825821,
        0.029797911643981934
      ],
      "type": "VEC2"
    },
    {
      "bufferView": 0,
      "componentType": 5125,
      "count": 4983,
      "max": [
        2415
      ],
      "min": [
        0
      ],
      "type": "SCALAR"
    }
  ],
  "asset": {
    "extras": {
      "author": "Miljan Bojovic (https://sketchfab.com/phoenix-storms)",
      "license": "CC-BY-ND-4.0 (http://creativecommons.org/licenses/by-nd/4.0/)",
      "source": "https://sketchfab.com/models/7846f1efffd94361834d606de6c8b091",
      "title": "PHX Metal Plate"
    },
    "generator": "Sketchfab-3.33.1",
    "version": "2.0"
  },
  "bufferViews": [
    {
      "buffer": 0,
      "byteLength": 19932,
      "byteOffset": 0,
      "name": "floatBufferViews",
      "target": 34963
    },
    {
      "buffer": 0,
      "byteLength": 57984,
      "byteOffset": 19932,
      "byteStride": 8,
      "name": "floatBufferViews",
      "target": 34962
    },
    {
      "buffer": 0,
      "byteLength": 57984,
      "byteOffset": 77916,
      "byteStride": 12,
      "name": "floatBufferViews",
      "target": 34962
    },
    {
      "buffer": 0,
      "byteLength": 38656,
      "byteOffset": 135900,
      "byteStride": 16,
      "name": "floatBufferViews",
      "target": 34962
    }
  ],
  "buffers": [
    {
      "byteLength": 174556,
      "uri": "scene.bin"
    }
  ],
  "images": [
    {
      "uri": "textures/material0.001_normal.png"
    },
    {
      "uri": "textures/material0.001_metallicRoughness.png"
    },
    {
      "uri": "textures/material0.001_baseColor.png"
    }
  ],
  "materials": [
    {
      "doubleSided": true,
      "emissiveFactor": [
        0,
        0,
        0
      ],
      "name": "material0.001",
      "normalTexture": {
        "index": 0,
        "scale": 1,
        "texCoord": 0
      },
      "pbrMetallicRoughness": {
        "baseColorFactor": [
          1,
          1,
          1,
          1
        ],
        "baseColorTexture": {
          "index": 2,
          "texCoord": 0
        },
        "metallicFactor": 1,
        "metallicRoughnessTexture": {
          "index": 1,
          "texCoord": 0
        },
        "roughnessFactor": 1
      }
    }
  ],
  "meshes": [
    {
      "name": "node_shape0_material0.001_0",
      "primitives": [
        {
          "attributes": {
            "NORMAL": 1,
            "POSITION": 0,
            "TANGENT": 2,
            "TEXCOORD_0": 3,
            "TEXCOORD_1": 4,
            "TEXCOORD_2": 5
          },
          "indices": 6,
          "material": 0,
          "mode": 4
        }
      ]
    }
  ],
  "nodes": [
    {
      "children": [
        1
      ],
      "name": "RootNode (gltf orientation matrix)",
      "rotation": [
        -0.70710678118654746,
        -0,
        -0,
        0.70710678118654757
      ]
    },
    {
      "children": [
        2
      ],
      "name": "RootNode (model correction matrix)"
    },
    {
      "children": [
        3
      ],
      "matrix": [
        1,
        0,
        0,
        0,
        0,
        0,
        1,
        0,
        0,
        -1,
        0,
        0,
        0,
        0,
        0,
        1
      ],
      "name": "d2e512b2b9524061a6457f959489a401.fbx"
    },
    {
      "children": [
        4
      ],
      "name": "RootNode"
    },
    {
      "children": [
        5
      ],
      "name": "node_shape0"
    },
    {
      "mesh": 0,
      "name": "node_shape0_material0.001_0"
    }
  ],
  "samplers": [
    {
      "magFilter": 9729,
      "minFilter": 9987,
      "wrapS": 10497,
      "wrapT": 10497
    }
  ],
  "scene": 0,
  "scenes": [
    {
      "name": "OSG_Scene",
      "nodes": [
        0
      ]
    }
  ],
  "textures": [
    {
      "sampler": 0,
      "source": 0
    },
    {
      "sampler": 0,
      "source": 1
    },
    {
      "sampler": 0,
      "source": 2
    }
  ]
}

