{
  "asset": {
    "version": "2.0",
    "generator": "THREE.GLTFExporter"
  },
  "scenes": [
    {
      "nodes": [
        9
      ]
    }
  ],
  "scene": 0,
  "nodes": [
    {
      "matrix": [
        9.384243870255327e-11,
        -0.0009915028832461696,
        -0.0001300825572647877,
        0,
        0.0008004213589638403,
        -0.000010193201097360329,
        0.00007769422486553378,
        0,
        -0.00009743266335497596,
        -0.00012946366597717729,
        0.0009867855213778897,
        0,
        -0.01608887128531933,
        -0.0083693852648139,
        0.03199023753404617,
        1
      ],
      "name": "mesh_id98",
      "mesh": 0
    },
    {
      "matrix": [
        2.6409507483264924e-10,
        -0.0009915028901456315,
        -0.00013008246642074275,
        0,
        0.0009952421804632025,
        -0.000012674028437478447,
        0.00009660486206231614,
        0,
        -0.00009743267180662321,
        -0.00012946359141803438,
        0.0009867855302587167,
        0,
        -0.01819617487490177,
        -0.008379575796425343,
        0.03191562741994858,
        1
      ],
      "name": "mesh_id96",
      "mesh": 1
    },
    {
      "matrix": [
        0.00010523300368480664,
        0,
        -0.00004855815564998842,
        0,
        0,
        0.00011589598580030724,
        0,
        0,
        0.00004855815564998842,
        0,
        0.00010523300368480664,
        0,
        0.0066838376224040985,
        -0.005546078085899353,
        0.044443849474191666,
        1
      ],
      "name": "node_id117",
      "mesh": 2
    },
    {
      "matrix": [
        1,
        0,
        0,
        0,
        0,
        1,
        0,
        0,
        0,
        0,
        1,
        0,
        -46.91609191894531,
        14.264518737792969,
        7.5,
        1
      ],
      "name": "mesh_id126",
      "mesh": 3
    },
    {
      "matrix": [
        1,
        0,
        0,
        0,
        0,
        1,
        0,
        0,
        0,
        0,
        1,
        0,
        -62.91609191894531,
        -3.7354812622070312,
        7.5,
        1
      ],
      "name": "mesh_id127",
      "mesh": 4
    },
    {
      "matrix": [
        1,
        0,
        0,
        0,
        0,
        1,
        0,
        0,
        0,
        0,
        1,
        0,
        -84.91609191894531,
        -22.73548126220703,
        7.5,
        1
      ],
      "name": "mesh_id128",
      "mesh": 5
    },
    {
      "matrix": [
        0.0005713776336051361,
        -5.76943970904097e-32,
        -1.362270597740827e-10,
        0,
        5.769439709040313e-32,
        0.0005713776336051524,
        -3.438854126092674e-38,
        0,
        1.362270597740827e-10,
        2.0633123444737334e-38,
        0.0005713776336051361,
        0,
        0.0034133302979171276,
        -0.028197359293699265,
        0.05278808996081352,
        1
      ],
      "name": "node_id122",
      "children": [
        3,
        4,
        5
      ]
    },
    {
      "matrix": [
        0.0006225102989066203,
        1.0259880914712334e-10,
        -0.0007360757650511076,
        0,
        -0.0005073618970899223,
        8.491823513474219e-11,
        -0.0004290836227722166,
        0,
        7.071921956926325e-11,
        0.0006644760817169428,
        8.491819794085132e-11,
        0,
        0.20125046372413635,
        -0.10572562366724014,
        0.17768485844135284,
        1
      ],
      "name": "node_id41",
      "mesh": 6
    },
    {
      "matrix": [
        6.227224454204429e-10,
        -2.2083301115249676e-10,
        0.00167667466693837,
        0,
        1.5016659193893332e-10,
        0.001676675281487384,
        2.2083303985965506e-10,
        0,
        -0.002320878556709249,
        2.0786266342134907e-10,
        8.619819006342081e-10,
        0,
        0.00790342316031456,
        -0.03391079977154732,
        0.031843360513448715,
        1
      ],
      "name": "node_id30",
      "mesh": 7
    },
    {
      "name": "root",
      "children": [
        0,
        1,
        2,
        6,
        7,
        8
      ]
    }
  ],
  "bufferViews": [
    {
      "buffer": 0,
      "byteOffset": 0,
      "byteLength": 8088,
      "target": 34962,
      "byteStride": 12
    },
    {
      "buffer": 0,
      "byteOffset": 8088,
      "byteLength": 8088,
      "target": 34962,
      "byteStride": 12
    },
    {
      "buffer": 0,
      "byteOffset": 16176,
      "byteLength": 5392,
      "target": 34962,
      "byteStride": 8
    },
    {
      "buffer": 0,
      "byteOffset": 21568,
      "byteLength": 10784,
      "target": 34962,
      "byteStride": 16
    },
    {
      "buffer": 0,
      "byteOffset": 32352,
      "byteLength": 3840,
      "target": 34963
    },
    {
      "buffer": 0,
      "byteOffset": 36192,
      "byteLength": 3024,
      "target": 34962,
      "byteStride": 12
    },
    {
      "buffer": 0,
      "byteOffset": 39216,
      "byteLength": 3024,
      "target": 34962,
      "byteStride": 12
    },
    {
      "buffer": 0,
      "byteOffset": 42240,
      "byteLength": 2016,
      "target": 34962,
      "byteStride": 8
    },
    {
      "buffer": 0,
      "byteOffset": 44256,
      "byteLength": 4032,
      "target": 34962,
      "byteStride": 16
    },
    {
      "buffer": 0,
      "byteOffset": 48288,
      "byteLength": 960,
      "target": 34963
    },
    {
      "buffer": 0,
      "byteOffset": 49248,
      "byteLength": 10176,
      "target": 34962,
      "byteStride": 12
    },
    {
      "buffer": 0,
      "byteOffset": 59424,
      "byteLength": 10176,
      "target": 34962,
      "byteStride": 12
    },
    {
      "buffer": 0,
      "byteOffset": 69600,
      "byteLength": 6784,
      "target": 34962,
      "byteStride": 8
    },
    {
      "buffer": 0,
      "byteOffset": 76384,
      "byteLength": 8328,
      "target": 34963
    },
    {
      "buffer": 0,
      "byteOffset": 84712,
      "byteLength": 24888,
      "target": 34962,
      "byteStride": 12
    },
    {
      "buffer": 0,
      "byteOffset": 109600,
      "byteLength": 24888,
      "target": 34962,
      "byteStride": 12
    },
    {
      "buffer": 0,
      "byteOffset": 134488,
      "byteLength": 11568,
      "target": 34963
    },
    {
      "buffer": 0,
      "byteOffset": 146056,
      "byteLength": 26568,
      "target": 34962,
      "byteStride": 12
    },
    {
      "buffer": 0,
      "byteOffset": 172624,
      "byteLength": 26568,
      "target": 34962,
      "byteStride": 12
    },
    {
      "buffer": 0,
      "byteOffset": 199192,
      "byteLength": 12264,
      "target": 34963
    },
    {
      "buffer": 0,
      "byteOffset": 211456,
      "byteLength": 43920,
      "target": 34962,
      "byteStride": 12
    },
    {
      "buffer": 0,
      "byteOffset": 255376,
      "byteLength": 43920,
      "target": 34962,
      "byteStride": 12
    },
    {
      "buffer": 0,
      "byteOffset": 299296,
      "byteLength": 20280,
      "target": 34963
    },
    {
      "buffer": 0,
      "byteOffset": 319576,
      "byteLength": 63984,
      "target": 34962,
      "byteStride": 12
    },
    {
      "buffer": 0,
      "byteOffset": 383560,
      "byteLength": 63984,
      "target": 34962,
      "byteStride": 12
    },
    {
      "buffer": 0,
      "byteOffset": 447544,
      "byteLength": 12636,
      "target": 34963
    },
    {
      "buffer": 0,
      "byteOffset": 460180,
      "byteLength": 36744,
      "target": 34962,
      "byteStride": 12
    },
    {
      "buffer": 0,
      "byteOffset": 496924,
      "byteLength": 36744,
      "target": 34962,
      "byteStride": 12
    },
    {
      "buffer": 0,
      "byteOffset": 533668,
      "byteLength": 24496,
      "target": 34962,
      "byteStride": 8
    },
    {
      "buffer": 0,
      "byteOffset": 558164,
      "byteLength": 22932,
      "target": 34963
    }
  ],
  "buffers": [
    {
      "byteLength": 581096,
      "uri": "data:application/octet-stream;base64,"
    }
  ],
  "accessors": [
    {
      "bufferView": 0,
      "componentType": 5126,
      "count": 674,
      "max": [
        3.5132193565368652,
        4.65533447265625,
        3.5132193565368652
      ],
      "min": [
        -3.5132193565368652,
        -4.65533447265625,
        -3.513218879699707
      ],
      "type": "VEC3"
    },
    {
      "bufferView": 1,
      "componentType": 5126,
      "count": 674,
      "max": [
        1,
        1,
        1
      ],
      "min": [
        -1,
        -1,
        -1
      ],
      "type": "VEC3"
    },
    {
      "bufferView": 2,
      "componentType": 5126,
      "count": 674,
      "max": [
        0.9999566078186035,
        0.8067501783370972
      ],
      "min": [
        0.00018215179443359375,
        0.00009981542825698853
      ],
      "type": "VEC2"
    },
    {
      "bufferView": 3,
      "componentType": 5126,
      "count": 674,
      "max": [
        1,
        1,
        1,
        1
      ],
      "min": [
        1,
        1,
        1,
        1
      ],
      "type": "VEC4"
    },
    {
      "bufferView": 4,
      "componentType": 5123,
      "count": 1920,
      "max": [
        673
      ],
      "min": [
        0
      ],
      "type": "SCALAR"
    },
    {
      "bufferView": 5,
      "componentType": 5126,
      "count": 252,
      "max": [
        4.954037666320801,
        3.505127191543579,
        4.954037666320801
      ],
      "min": [
        -4.954037666320801,
        -3.505127191543579,
        -4.954037666320801
      ],
      "type": "VEC3"
    },
    {
      "bufferView": 6,
      "componentType": 5126,
      "count": 252,
      "max": [
        0.816659152507782,
        0.5771203637123108,
        0.816659152507782
      ],
      "min": [
        -0.816659152507782,
        -1,
        -0.816659152507782
      ],
      "type": "VEC3"
    },
    {
      "bufferView": 7,
      "componentType": 5126,
      "count": 252,
      "max": [
        0.8627163171768188,
        0.9997916221618652
      ],
      "min": [
        0.00013067432155366987,
        0.00023163855075836182
      ],
      "type": "VEC2"
    },
    {
      "bufferView": 8,
      "componentType": 5126,
      "count": 252,
      "max": [
        1,
        1,
        1,
        1
      ],
      "min": [
        1,
        1,
        1,
        1
      ],
      "type": "VEC4"
    },
    {
      "bufferView": 9,
      "componentType": 5123,
      "count": 480,
      "max": [
        251
      ],
      "min": [
        0
      ],
      "type": "SCALAR"
    },
    {
      "bufferView": 10,
      "componentType": 5126,
      "count": 848,
      "max": [
        242.10362243652344,
        398.1280517578125,
        126.083984375
      ],
      "min": [
        -242.1036376953125,
        0,
        -126.08397674560547
      ],
      "type": "VEC3"
    },
    {
      "bufferView": 11,
      "componentType": 5126,
      "count": 848,
      "max": [
        0.9922100901603699,
        0.9997366070747375,
        0.9892721772193909
      ],
      "min": [
        -0.9872018098831177,
        -0.9900282621383667,
        -0.9979408383369446
      ],
      "type": "VEC3"
    },
    {
      "bufferView": 12,
      "componentType": 5126,
      "count": 848,
      "max": [
        0.9861054420471191,
        0.9923485517501831
      ],
      "min": [
        0.015865499153733253,
        0.011300444602966309
      ],
      "type": "VEC2"
    },
    {
      "bufferView": 13,
      "componentType": 5123,
      "count": 4164,
      "max": [
        847
      ],
      "min": [
        0
      ],
      "type": "SCALAR"
    },
    {
      "bufferView": 14,
      "componentType": 5126,
      "count": 2074,
      "max": [
        75.66194152832031,
        11.619317054748535,
        0
      ],
      "min": [
        1.1611523628234863,
        -0.18703126907348633,
        -15
      ],
      "type": "VEC3"
    },
    {
      "bufferView": 15,
      "componentType": 5126,
      "count": 2074,
      "max": [
        1,
        1,
        1
      ],
      "min": [
        -1,
        -1,
        -1
      ],
      "type": "VEC3"
    },
    {
      "bufferView": 16,
      "componentType": 5123,
      "count": 5784,
      "max": [
        2073
      ],
      "min": [
        0
      ],
      "type": "SCALAR"
    },
    {
      "bufferView": 17,
      "componentType": 5126,
      "count": 2214,
      "max": [
        116.50489044189453,
        11.619317054748535,
        0
      ],
      "min": [
        -0.007792969234287739,
        -0.18703126907348633,
        -15
      ],
      "type": "VEC3"
    },
    {
      "bufferView": 18,
      "componentType": 5126,
      "count": 2214,
      "max": [
        1,
        1,
        1
      ],
      "min": [
        -1,
        -1,
        -1
      ],
      "type": "VEC3"
    },
    {
      "bufferView": 19,
      "componentType": 5123,
      "count": 6132,
      "max": [
        2213
      ],
      "min": [
        0
      ],
      "type": "SCALAR"
    },
    {
      "bufferView": 20,
      "componentType": 5126,
      "count": 3660,
      "max": [
        168.74896240234375,
        11.424492835998535,
        0
      ],
      "min": [
        1.08322274684906,
        -3.148359537124634,
        -15
      ],
      "type": "VEC3"
    },
    {
      "bufferView": 21,
      "componentType": 5126,
      "count": 3660,
      "max": [
        1,
        1,
        1
      ],
      "min": [
        -1,
        -1,
        -1
      ],
      "type": "VEC3"
    },
    {
      "bufferView": 22,
      "componentType": 5123,
      "count": 10140,
      "max": [
        3659
      ],
      "min": [
        0
      ],
      "type": "SCALAR"
    },
    {
      "bufferView": 23,
      "componentType": 5126,
      "count": 5332,
      "max": [
        4.262700080871582,
        413.9599914550781,
        204.33399963378906
      ],
      "min": [
        -56.062198638916016,
        391.76800537109375,
        124.95899963378906
      ],
      "type": "VEC3"
    },
    {
      "bufferView": 24,
      "componentType": 5126,
      "count": 5332,
      "max": [
        1,
        1,
        1
      ],
      "min": [
        -1,
        -1,
        -1
      ],
      "type": "VEC3"
    },
    {
      "bufferView": 25,
      "componentType": 5123,
      "count": 6318,
      "max": [
        5331
      ],
      "min": [
        0
      ],
      "type": "SCALAR"
    },
    {
      "bufferView": 26,
      "componentType": 5126,
      "count": 3062,
      "max": [
        4.197650909423828,
        19.421710968017578,
        17.211856842041016
      ],
      "min": [
        -4.197650909423828,
        0,
        -17.120834350585938
      ],
      "type": "VEC3"
    },
    {
      "bufferView": 27,
      "componentType": 5126,
      "count": 3062,
      "max": [
        1,
        0.9999927878379822,
        1
      ],
      "min": [
        -1,
        -0.9999927878379822,
        -0.9997113943099976
      ],
      "type": "VEC3"
    },
    {
      "bufferView": 28,
      "componentType": 5126,
      "count": 3062,
      "max": [
        0.9928119778633118,
        0.9934960007667542
      ],
      "min": [
        0.003022999968379736,
        0.00532299280166626
      ],
      "type": "VEC2"
    },
    {
      "bufferView": 29,
      "componentType": 5123,
      "count": 11466,
      "max": [
        3061
      ],
      "min": [
        0
      ],
      "type": "SCALAR"
    }
  ],
  "materials": [],
  "meshes": [
    {
      "primitives": [
        {
          "mode": 4,
          "attributes": {
            "POSITION": 0,
            "NORMAL": 1,
            "TEXCOORD_0": 2,
            "COLOR_0": 3
          },
          "indices": 4
        }
      ]
    },
    {
      "primitives": [
        {
          "mode": 4,
          "attributes": {
            "POSITION": 5,
            "NORMAL": 6,
            "TEXCOORD_0": 7,
            "COLOR_0": 8
          },
          "indices": 9
        }
      ]
    },
    {
      "primitives": [
        {
          "mode": 4,
          "attributes": {
            "POSITION": 10,
            "NORMAL": 11,
            "TEXCOORD_0": 12
          },
          "indices": 13
        }
      ]
    },
    {
      "primitives": [
        {
          "mode": 4,
          "attributes": {
            "POSITION": 14,
            "NORMAL": 15
          },
          "indices": 16
        }
      ]
    },
    {
      "primitives": [
        {
          "mode": 4,
          "attributes": {
            "POSITION": 17,
            "NORMAL": 18
          },
          "indices": 19
        }
      ]
    },
    {
      "primitives": [
        {
          "mode": 4,
          "attributes": {
            "POSITION": 20,
            "NORMAL": 21
          },
          "indices": 22
        }
      ]
    },
    {
      "primitives": [
        {
          "mode": 4,
          "attributes": {
            "POSITION": 23,
            "NORMAL": 24
          },
          "indices": 25
        }
      ]
    },
    {
      "primitives": [
        {
          "mode": 4,
          "attributes": {
            "POSITION": 26,
            "NORMAL": 27,
            "TEXCOORD_0": 28
          },
          "indices": 29
        }
      ]
    }
  ]
}