{"asset":{"version":"2.0","generator":"Microsoft GLTF Exporter 2.4.2.8"},"accessors":[{"bufferView":0,"componentType":5123,"count":1920,"type":"SCALAR","byteOffset":0},{"bufferView":1,"componentType":5123,"count":24,"type":"SCALAR","byteOffset":0},{"bufferView":2,"componentType":5126,"count":666,"type":"VEC3","max":[29.538501739501953,58.85207748413086,29.538501739501953],"min":[-29.538501739501953,-58.85207748413086,-29.538497924804688],"byteOffset":0},{"bufferView":3,"componentType":5126,"count":20,"type":"VEC3","max":[28.31951904296875,51.742679595947266,28.319515228271484],"min":[-28.319509506225586,-51.742679595947266,-28.319509506225586],"byteOffset":0},{"bufferView":4,"componentType":5126,"count":666,"type":"VEC3","byteOffset":0},{"bufferView":5,"componentType":5126,"count":20,"type":"VEC3","byteOffset":0},{"bufferView":6,"componentType":5126,"count":666,"type":"VEC2","byteOffset":0},{"bufferView":7,"componentType":5126,"count":20,"type":"VEC2","byteOffset":0},{"bufferView":8,"componentType":5126,"count":666,"type":"VEC4","byteOffset":0},{"bufferView":9,"componentType":5126,"count":20,"type":"VEC4","byteOffset":0}],"bufferViews":[{"buffer":0,"byteOffset":0,"byteLength":3840,"target":34963},{"buffer":0,"byteOffset":3840,"byteLength":48,"target":34963},{"buffer":0,"byteOffset":3888,"byteLength":7992,"target":34962,"byteStride":12},{"buffer":0,"byteOffset":11880,"byteLength":240,"target":34962,"byteStride":12},{"buffer":0,"byteOffset":12120,"byteLength":7992,"target":34962,"byteStride":12},{"buffer":0,"byteOffset":20112,"byteLength":240,"target":34962,"byteStride":12},{"buffer":0,"byteOffset":20352,"byteLength":5328,"target":34962,"byteStride":8},{"buffer":0,"byteOffset":25680,"byteLength":160,"target":34962,"byteStride":8},{"buffer":0,"byteOffset":25840,"byteLength":10656,"target":34962,"byteStride":16},{"buffer":0,"byteOffset":36496,"byteLength":320,"target":34962,"byteStride":16},{"buffer":0,"byteOffset":36816,"byteLength":163},{"buffer":0,"byteOffset":36980,"byteLength":152},{"buffer":0,"byteOffset":37132,"byteLength":163},{"buffer":0,"byteOffset":37296,"byteLength":161},{"buffer":0,"byteOffset":37460,"byteLength":163},{"buffer":0,"byteOffset":37624,"byteLength":152},{"buffer":0,"byteOffset":37776,"byteLength":163},{"buffer":0,"byteOffset":37940,"byteLength":161}],"buffers":[{"name":"output","byteLength":38104,"uri":"data:application/octet-stream;base64,"}],"images":[{"bufferView":10,"mimeType":"image/png"},{"bufferView":11,"mimeType":"image/png"},{"bufferView":12,"mimeType":"image/png"},{"bufferView":13,"mimeType":"image/png"},{"bufferView":14,"mimeType":"image/png"},{"bufferView":15,"mimeType":"image/png"},{"bufferView":16,"mimeType":"image/png"},{"bufferView":17,"mimeType":"image/png"}],"materials":[{"pbrMetallicRoughness":{"baseColorTexture":{"index":2,"texCoord":0},"metallicRoughnessTexture":{"index":3,"texCoord":0},"baseColorFactor":[1,1,1,1],"metallicFactor":1,"roughnessFactor":1},"name":"73","doubleSided":true,"extensions":{"KHR_materials_pbrSpecularGlossiness":{"diffuseTexture":{"index":0},"specularGlossinessTexture":{"index":1}}},"extras":{"MSFT_sRGBFactors":false},"emissiveFactor":[0,0,0],"alphaMode":"OPAQUE"},{"pbrMetallicRoughness":{"baseColorTexture":{"index":6,"texCoord":0},"metallicRoughnessTexture":{"index":7,"texCoord":0},"baseColorFactor":[1,1,1,1],"metallicFactor":1,"roughnessFactor":1},"name":"75","doubleSided":true,"extensions":{"KHR_materials_pbrSpecularGlossiness":{"diffuseTexture":{"index":4},"specularGlossinessTexture":{"index":5}}},"extras":{"MSFT_sRGBFactors":false},"emissiveFactor":[0,0,0],"alphaMode":"OPAQUE"}],"meshes":[{"name":"mesh_id36","primitives":[{"attributes":{"POSITION":2,"NORMAL":4,"TEXCOORD_0":6,"COLOR_0":8},"indices":0,"material":0,"mode":4}]},{"name":"mesh_id38","primitives":[{"attributes":{"POSITION":3,"NORMAL":5,"TEXCOORD_0":7,"COLOR_0":9},"indices":1,"material":1,"mode":4}]}],"nodes":[{"translation":[0.010626450181007385,0.0006718750228174031,0.07012219727039337],"rotation":[0.5,0.5,0.5,-0.5],"scale":[0.0010000000474974513,0.0005715834558941424,0.0010000000474974513],"mesh":0},{"translation":[-0.010120300576090813,0.00012231446453370154,0.0700375959277153],"rotation":[0.5,0.5,0.5,-0.5],"scale":[0.0012541202595457435,0.0009187045507133007,0.0012541202595457435],"mesh":1},{"children":[0,1],"name":"root"}],"samplers":[{"minFilter":9985,"wrapS":10497,"wrapT":10497}],"scenes":[{"nodes":[2]}],"scene":0,"textures":[{"name":"texture825","sampler":0,"source":0},{"name":"texture829","sampler":0,"source":1},{"name":"73_bc","sampler":0,"source":2},{"name":"73_mr","sampler":0,"source":3},{"name":"texture834","sampler":0,"source":4},{"name":"texture837","sampler":0,"source":5},{"name":"75_bc","sampler":0,"source":6},{"name":"75_mr","sampler":0,"source":7}],"extensionsUsed":["KHR_materials_pbrSpecularGlossiness"]}
