{
  "asset": {
    "version": "2.0",
    "generator": "THREE.GLTFExporter"
  },
  "scenes": [
    {
      "nodes": [
        7
      ]
    }
  ],
  "scene": 0,
  "nodes": [
    {
      "matrix": [
        9.384243870255327e-11,
        -0.0009915028832461696,
        -0.0001300825572647877,
        0,
        0.0008004213589638403,
        -0.000010193201097360329,
        0.00007769422486553378,
        0,
        -0.00009743266335497596,
        -0.00012946366597717729,
        0.0009867855213778897,
        0,
        -0.01608887128531933,
        -0.0083693852648139,
        0.03199023753404617,
        1
      ],
      "name": "mesh_id98",
      "mesh": 0
    },
    {
      "matrix": [
        2.6409507483264924e-10,
        -0.0009915028901456315,
        -0.00013008246642074275,
        0,
        0.0009952421804632025,
        -0.000012674028437478447,
        0.00009660486206231614,
        0,
        -0.00009743267180662321,
        -0.00012946359141803438,
        0.0009867855302587167,
        0,
        -0.01819617487490177,
        -0.008379575796425343,
        0.03191562741994858,
        1
      ],
      "name": "mesh_id96",
      "mesh": 1
    },
    {
      "matrix": [
        0.0006225102989066203,
        1.0259880914712334e-10,
        -0.0007360757650511076,
        0,
        -0.0005073618970899223,
        8.491823513474219e-11,
        -0.0004290836227722166,
        0,
        7.071921956926325e-11,
        0.0006644760817169428,
        8.491819794085132e-11,
        0,
        0.20125046372413635,
        -0.10572562366724014,
        0.17768485844135284,
        1
      ],
      "name": "node_id41",
      "mesh": 2
    },
    {
      "matrix": [
        1,
        0,
        0,
        0,
        0,
        1,
        0,
        0,
        0,
        0,
        1,
        0,
        -107.8858642578125,
        14.2645263671875,
        7.5,
        1
      ],
      "name": "mesh_id152",
      "mesh": 3
    },
    {
      "matrix": [
        1,
        0,
        0,
        0,
        0,
        1,
        0,
        0,
        0,
        0,
        1,
        0,
        -86.8858642578125,
        -3.7354736328125,
        7.5,
        1
      ],
      "name": "mesh_id153",
      "mesh": 4
    },
    {
      "matrix": [
        1,
        0,
        0,
        0,
        0,
        1,
        0,
        0,
        0,
        0,
        1,
        0,
        -72.8858642578125,
        -22.7354736328125,
        7.5,
        1
      ],
      "name": "mesh_id154",
      "mesh": 5
    },
    {
      "matrix": [
        0.0004495828470680735,
        -2.7058289815306274e-39,
        -1.0718892914223429e-10,
        0,
        2.705828981529458e-39,
        0.00044958284706808627,
        -5.226478106217112e-45,
        0,
        1.0718892914223429e-10,
        4.5813580513403215e-45,
        0.0004495828470680735,
        0,
        0.003818676108494401,
        0.012399332597851753,
        0.05447786673903465,
        1
      ],
      "name": "node_id146",
      "children": [
        3,
        4,
        5
      ]
    },
    {
      "name": "root",
      "children": [
        0,
        1,
        2,
        6
      ]
    }
  ],
  "bufferViews": [
    {
      "buffer": 0,
      "byteOffset": 0,
      "byteLength": 8088,
      "target": 34962,
      "byteStride": 12
    },
    {
      "buffer": 0,
      "byteOffset": 8088,
      "byteLength": 8088,
      "target": 34962,
      "byteStride": 12
    },
    {
      "buffer": 0,
      "byteOffset": 16176,
      "byteLength": 5392,
      "target": 34962,
      "byteStride": 8
    },
    {
      "buffer": 0,
      "byteOffset": 21568,
      "byteLength": 10784,
      "target": 34962,
      "byteStride": 16
    },
    {
      "buffer": 0,
      "byteOffset": 32352,
      "byteLength": 3840,
      "target": 34963
    },
    {
      "buffer": 0,
      "byteOffset": 36192,
      "byteLength": 3024,
      "target": 34962,
      "byteStride": 12
    },
    {
      "buffer": 0,
      "byteOffset": 39216,
      "byteLength": 3024,
      "target": 34962,
      "byteStride": 12
    },
    {
      "buffer": 0,
      "byteOffset": 42240,
      "byteLength": 2016,
      "target": 34962,
      "byteStride": 8
    },
    {
      "buffer": 0,
      "byteOffset": 44256,
      "byteLength": 4032,
      "target": 34962,
      "byteStride": 16
    },
    {
      "buffer": 0,
      "byteOffset": 48288,
      "byteLength": 960,
      "target": 34963
    },
    {
      "buffer": 0,
      "byteOffset": 49248,
      "byteLength": 63984,
      "target": 34962,
      "byteStride": 12
    },
    {
      "buffer": 0,
      "byteOffset": 113232,
      "byteLength": 63984,
      "target": 34962,
      "byteStride": 12
    },
    {
      "buffer": 0,
      "byteOffset": 177216,
      "byteLength": 12636,
      "target": 34963
    },
    {
      "buffer": 0,
      "byteOffset": 189852,
      "byteLength": 56520,
      "target": 34962,
      "byteStride": 12
    },
    {
      "buffer": 0,
      "byteOffset": 246372,
      "byteLength": 56520,
      "target": 34962,
      "byteStride": 12
    },
    {
      "buffer": 0,
      "byteOffset": 302892,
      "byteLength": 26184,
      "target": 34963
    },
    {
      "buffer": 0,
      "byteOffset": 329076,
      "byteLength": 47688,
      "target": 34962,
      "byteStride": 12
    },
    {
      "buffer": 0,
      "byteOffset": 376764,
      "byteLength": 47688,
      "target": 34962,
      "byteStride": 12
    },
    {
      "buffer": 0,
      "byteOffset": 424452,
      "byteLength": 22008,
      "target": 34963
    },
    {
      "buffer": 0,
      "byteOffset": 446460,
      "byteLength": 28968,
      "target": 34962,
      "byteStride": 12
    },
    {
      "buffer": 0,
      "byteOffset": 475428,
      "byteLength": 28968,
      "target": 34962,
      "byteStride": 12
    },
    {
      "buffer": 0,
      "byteOffset": 504396,
      "byteLength": 13128,
      "target": 34963
    }
  ],
  "buffers": [
    {
      "byteLength": 517524,
      "uri": "data:application/octet-stream;base64,"
    }
  ],
  "accessors": [
    {
      "bufferView": 0,
      "componentType": 5126,
      "count": 674,
      "max": [
        3.5132193565368652,
        4.65533447265625,
        3.5132193565368652
      ],
      "min": [
        -3.5132193565368652,
        -4.65533447265625,
        -3.513218879699707
      ],
      "type": "VEC3"
    },
    {
      "bufferView": 1,
      "componentType": 5126,
      "count": 674,
      "max": [
        1,
        1,
        1
      ],
      "min": [
        -1,
        -1,
        -1
      ],
      "type": "VEC3"
    },
    {
      "bufferView": 2,
      "componentType": 5126,
      "count": 674,
      "max": [
        0.9999566078186035,
        0.8067501783370972
      ],
      "min": [
        0.00018215179443359375,
        0.00009981542825698853
      ],
      "type": "VEC2"
    },
    {
      "bufferView": 3,
      "componentType": 5126,
      "count": 674,
      "max": [
        1,
        1,
        1,
        1
      ],
      "min": [
        1,
        1,
        1,
        1
      ],
      "type": "VEC4"
    },
    {
      "bufferView": 4,
      "componentType": 5123,
      "count": 1920,
      "max": [
        673
      ],
      "min": [
        0
      ],
      "type": "SCALAR"
    },
    {
      "bufferView": 5,
      "componentType": 5126,
      "count": 252,
      "max": [
        4.954037666320801,
        3.505127191543579,
        4.954037666320801
      ],
      "min": [
        -4.954037666320801,
        -3.505127191543579,
        -4.954037666320801
      ],
      "type": "VEC3"
    },
    {
      "bufferView": 6,
      "componentType": 5126,
      "count": 252,
      "max": [
        0.816659152507782,
        0.5771203637123108,
        0.816659152507782
      ],
      "min": [
        -0.816659152507782,
        -1,
        -0.816659152507782
      ],
      "type": "VEC3"
    },
    {
      "bufferView": 7,
      "componentType": 5126,
      "count": 252,
      "max": [
        0.8627163171768188,
        0.9997916221618652
      ],
      "min": [
        0.00013067432155366987,
        0.00023163855075836182
      ],
      "type": "VEC2"
    },
    {
      "bufferView": 8,
      "componentType": 5126,
      "count": 252,
      "max": [
        1,
        1,
        1,
        1
      ],
      "min": [
        1,
        1,
        1,
        1
      ],
      "type": "VEC4"
    },
    {
      "bufferView": 9,
      "componentType": 5123,
      "count": 480,
      "max": [
        251
      ],
      "min": [
        0
      ],
      "type": "SCALAR"
    },
    {
      "bufferView": 10,
      "componentType": 5126,
      "count": 5332,
      "max": [
        4.262700080871582,
        413.9599914550781,
        204.33399963378906
      ],
      "min": [
        -56.062198638916016,
        391.76800537109375,
        124.95899963378906
      ],
      "type": "VEC3"
    },
    {
      "bufferView": 11,
      "componentType": 5126,
      "count": 5332,
      "max": [
        1,
        1,
        1
      ],
      "min": [
        -1,
        -1,
        -1
      ],
      "type": "VEC3"
    },
    {
      "bufferView": 12,
      "componentType": 5123,
      "count": 6318,
      "max": [
        5331
      ],
      "min": [
        0
      ],
      "type": "SCALAR"
    },
    {
      "bufferView": 13,
      "componentType": 5126,
      "count": 4710,
      "max": [
        215.77952575683594,
        11.619317054748535,
        0
      ],
      "min": [
        -0.007792969234287739,
        -0.18703126907348633,
        -15
      ],
      "type": "VEC3"
    },
    {
      "bufferView": 14,
      "componentType": 5126,
      "count": 4710,
      "max": [
        1,
        1,
        1
      ],
      "min": [
        -1,
        -1,
        -1
      ],
      "type": "VEC3"
    },
    {
      "bufferView": 15,
      "componentType": 5123,
      "count": 13092,
      "max": [
        4709
      ],
      "min": [
        0
      ],
      "type": "SCALAR"
    },
    {
      "bufferView": 16,
      "componentType": 5126,
      "count": 3974,
      "max": [
        164.83688354492188,
        11.619317054748535,
        0
      ],
      "min": [
        1.0910156965255737,
        -0.18703126907348633,
        -15
      ],
      "type": "VEC3"
    },
    {
      "bufferView": 17,
      "componentType": 5126,
      "count": 3974,
      "max": [
        1,
        1,
        1
      ],
      "min": [
        -1,
        -1,
        -1
      ],
      "type": "VEC3"
    },
    {
      "bufferView": 18,
      "componentType": 5123,
      "count": 11004,
      "max": [
        3973
      ],
      "min": [
        0
      ],
      "type": "SCALAR"
    },
    {
      "bufferView": 19,
      "componentType": 5126,
      "count": 2414,
      "max": [
        131.48297119140625,
        11.619317054748535,
        0
      ],
      "min": [
        5.073223114013672,
        -3.148359537124634,
        -15
      ],
      "type": "VEC3"
    },
    {
      "bufferView": 20,
      "componentType": 5126,
      "count": 2414,
      "max": [
        1,
        1,
        1
      ],
      "min": [
        -1,
        -1,
        -1
      ],
      "type": "VEC3"
    },
    {
      "bufferView": 21,
      "componentType": 5123,
      "count": 6564,
      "max": [
        2413
      ],
      "min": [
        0
      ],
      "type": "SCALAR"
    }
  ],
  "materials": [],
  "meshes": [
    {
      "primitives": [
        {
          "mode": 4,
          "attributes": {
            "POSITION": 0,
            "NORMAL": 1,
            "TEXCOORD_0": 2,
            "COLOR_0": 3
          },
          "indices": 4
        }
      ]
    },
    {
      "primitives": [
        {
          "mode": 4,
          "attributes": {
            "POSITION": 5,
            "NORMAL": 6,
            "TEXCOORD_0": 7,
            "COLOR_0": 8
          },
          "indices": 9
        }
      ]
    },
    {
      "primitives": [
        {
          "mode": 4,
          "attributes": {
            "POSITION": 10,
            "NORMAL": 11
          },
          "indices": 12
        }
      ]
    },
    {
      "primitives": [
        {
          "mode": 4,
          "attributes": {
            "POSITION": 13,
            "NORMAL": 14
          },
          "indices": 15
        }
      ]
    },
    {
      "primitives": [
        {
          "mode": 4,
          "attributes": {
            "POSITION": 16,
            "NORMAL": 17
          },
          "indices": 18
        }
      ]
    },
    {
      "primitives": [
        {
          "mode": 4,
          "attributes": {
            "POSITION": 19,
            "NORMAL": 20
          },
          "indices": 21
        }
      ]
    }
  ]
}